<?xml version="1.0" standalone="no"?>
<!DOCTYPE svg PUBLIC "-//W3C//DTD SVG 20010904//EN"
 "http://www.w3.org/TR/2001/REC-SVG-20010904/DTD/svg10.dtd">
<svg version="1.0" xmlns="http://www.w3.org/2000/svg"
 width="791.000000pt" height="1120.000000pt" viewBox="0 0 791.000000 1120.000000"
 preserveAspectRatio="xMidYMid meet">

<g transform="translate(0.000000,1120.000000) scale(0.100000,-0.100000)"
fill="#000000" stroke="none">
<path d="M600 11141 c-357 -97 -587 -458 -516 -811 49 -241 187 -417 410 -521
83 -39 181 -59 292 -59 190 0 354 69 494 210 130 130 196 274 207 455 13 201
-64 403 -207 543 -95 94 -223 164 -348 191 -80 17 -256 13 -332 -8z"/>
<path d="M163 9441 c-29 -5 -60 -11 -68 -15 -14 -5 -15 -329 -12 -3033 l2
-3028 23 -97 c67 -290 191 -517 392 -718 251 -252 563 -394 937 -430 61 -5
118 -7 127 -4 15 6 16 202 16 2275 l0 2269 600 0 600 0 0 -2197 c0 -1336 4
-2237 10 -2298 36 -376 176 -672 439 -936 273 -273 585 -413 989 -444 l72 -5
0 2940 0 2940 1315 0 1315 0 0 730 0 730 -2669 0 -2670 0 -6 58 c-28 265 -75
423 -183 607 -228 390 -638 646 -1057 660 -66 2 -144 0 -172 -4z m6169 -1541
c188 -58 346 -238 378 -431 32 -191 -30 -373 -172 -504 -219 -203 -547 -192
-752 25 -175 186 -205 451 -74 667 66 108 188 206 302 243 85 27 232 27 318 0z"/>
<path d="M7590 4820 l0 -3300 100 0 100 0 0 3300 0 3300 -100 0 -100 0 0
-3300z"/>
<path d="M5460 3104 l0 -3106 93 7 c411 30 790 225 1038 533 116 144 189 279
249 461 75 227 70 24 70 2758 l0 2453 -725 0 -725 0 0 -3106z"/>
</g>
</svg>
