<?xml version="1.0" encoding="utf-8"?>
<!-- Generator: Adobe Illustrator 18.1.1, SVG Export Plug-In . SVG Version: 6.00 Build 0)  -->
<svg version="1.1" id="Layer_1" xmlns="http://www.w3.org/2000/svg" xmlns:xlink="http://www.w3.org/1999/xlink" x="0px" y="0px"
	 viewBox="156.6 166.3 295.6 482.4" enable-background="new 156.6 166.3 295.6 482.4" xml:space="preserve">
<g>
	<path fill="#127BF9" d="M179.4,167.1c-15.4,4.2-25.4,19.8-22.3,35c2.1,10.4,8.1,18,17.7,22.5c3.6,1.7,7.8,2.5,12.6,2.5
		c8.2,0,15.3-3,21.3-9.1c5.6-5.6,8.5-11.8,8.9-19.7c0.6-8.7-2.8-17.4-8.9-23.5c-4.1-4.1-9.6-7.1-15-8.3
		C190.3,166.1,182.7,166.2,179.4,167.1z"/>
	<path fill="#127BF9" d="M160.5,240.6c-1.3,0.2-2.6,0.5-2.9,0.6c-0.6,0.2-0.6,14.2-0.5,131.1l0.1,130.9l1,4.2
		c2.9,12.5,8.3,22.3,16.9,31c10.8,10.9,24.3,17,40.5,18.6c2.6,0.2,5.1,0.3,5.5,0.2c0.6-0.3,0.7-8.7,0.7-98.3v-98.1h25.9h25.9v94.9
		c0,57.7,0.2,96.7,0.4,99.3c1.6,16.2,7.6,29,19,40.5c11.8,11.8,25.3,17.8,42.7,19.2l3.1,0.2V487.9V360.8h56.8h56.8v-31.5v-31.5
		H337.2H221.8l-0.3-2.5c-1.2-11.5-3.2-18.3-7.9-26.2c-9.9-16.9-27.6-27.9-45.7-28.5C165.1,240.4,161.7,240.4,160.5,240.6z
		 M427.1,307.2c8.1,2.5,15,10.3,16.3,18.6c1.4,8.3-1.3,16.1-7.4,21.8c-9.5,8.8-23.6,8.3-32.5-1.1c-7.6-8-8.9-19.5-3.2-28.8
		c2.9-4.7,8.1-8.9,13.1-10.5C417.1,306,423.4,306,427.1,307.2z"/>
	<path fill="#127BF9" d="M389.5,514.5v134.2l4-0.3c17.8-1.3,34.1-9.7,44.9-23c5-6.2,8.2-12.1,10.8-19.9c3.2-9.8,3-1,3-119.2v-106
		h-31.3h-31.3V514.5z"/>
</g>
</svg>
